<svg xmlns="http://www.w3.org/2000/svg" viewBox="0 0 1200 400"><defs><linearGradient id="skyGradient" x1="0%" x2="0%" y1="0%" y2="100%"><stop offset="0%" style="stop-color:#1a237e;stop-opacity:1"/><stop offset="50%" style="stop-color:#283593;stop-opacity:1"/><stop offset="100%" style="stop-color:#3949ab;stop-opacity:1"/></linearGradient><linearGradient id="seaGradient" x1="0%" x2="0%" y1="0%" y2="100%"><stop offset="0%" style="stop-color:#0277bd;stop-opacity:.8"/><stop offset="100%" style="stop-color:#01579b;stop-opacity:1"/></linearGradient><linearGradient id="sunGradient" x1="0%" x2="100%" y1="0%" y2="100%"><stop offset="0%" style="stop-color:#ffd54f;stop-opacity:1"/><stop offset="100%" style="stop-color:#ffb300;stop-opacity:1"/></linearGradient><radialGradient id="glowGradient" cx="50%" cy="50%"><stop offset="0%" style="stop-color:#fff;stop-opacity:.8"/><stop offset="100%" style="stop-color:#ffd54f;stop-opacity:0"/></radialGradient><pattern id="waves" width="100" height="20" x="0" y="0" patternUnits="userSpaceOnUse"><path fill="none" stroke="#fff" stroke-width="1" d="M0,10 Q25,5 50,10 T100,10" opacity=".1"/><path fill="none" stroke="#fff" stroke-width="1" d="M0,15 Q25,10 50,15 T100,15" opacity=".05"/></pattern><pattern id="strawTexture" width="20" height="20" x="0" y="0" patternUnits="userSpaceOnUse"><line x1="0" x2="20" y1="0" y2="20" stroke="#d4a574" stroke-width="2" opacity=".3"/><line x1="20" x2="0" y1="0" y2="20" stroke="#d4a574" stroke-width="2" opacity=".3"/></pattern><filter id="shadow" width="200%" height="200%" x="-50%" y="-50%"><feGaussianBlur in="SourceAlpha" stdDeviation="8"/><feOffset dx="0" dy="4" result="offsetblur"/><feComponentTransfer><feFuncA slope=".5" type="linear"/></feComponentTransfer><feMerge><feMergeNode/><feMergeNode in="SourceGraphic"/></feMerge></filter><filter id="glow"><feGaussianBlur result="coloredBlur" stdDeviation="4"/><feMerge><feMergeNode in="coloredBlur"/><feMergeNode in="SourceGraphic"/></feMerge></filter></defs><rect width="1200" height="400" fill="url(#skyGradient)"/><circle cx="100" cy="50" r="2" fill="#fff" opacity=".6"><animate attributeName="opacity" dur="3s" repeatCount="indefinite" values="0.3;0.8;0.3"/></circle><circle cx="250" cy="80" r="1.5" fill="#fff" opacity=".5"><animate attributeName="opacity" dur="4s" repeatCount="indefinite" values="0.2;0.7;0.2"/></circle><circle cx="950" cy="60" r="2" fill="#fff" opacity=".7"><animate attributeName="opacity" dur="2.5s" repeatCount="indefinite" values="0.4;0.9;0.4"/></circle><circle cx="1100" cy="90" r="1.5" fill="#fff" opacity=".5"><animate attributeName="opacity" dur="3.5s" repeatCount="indefinite" values="0.3;0.8;0.3"/></circle><circle cx="1000" cy="100" r="80" fill="url(#sunGradient)" filter="url(#glow)" opacity=".3"/><circle cx="1000" cy="100" r="50" fill="url(#sunGradient)"><animate attributeName="r" dur="4s" repeatCount="indefinite" values="50;55;50"/></circle><g opacity=".4"><line x1="1000" x2="1000" y1="30" y2="0" stroke="#ffd54f" stroke-linecap="round" stroke-width="3"><animate attributeName="y2" dur="2s" repeatCount="indefinite" values="0;-10;0"/></line><line x1="1050" x2="1070" y1="50" y2="30" stroke="#ffd54f" stroke-linecap="round" stroke-width="3"><animate attributeName="x2" dur="2s" repeatCount="indefinite" values="1070;1080;1070"/></line><line x1="1070" x2="1100" y1="100" y2="100" stroke="#ffd54f" stroke-linecap="round" stroke-width="3"><animate attributeName="x2" dur="2s" repeatCount="indefinite" values="1100;1110;1100"/></line></g><path fill="url(#seaGradient)" d="M0,250 Q150,240 300,250 T600,250 T900,250 T1200,250 L1200,400 L0,400 Z" opacity=".9"/><rect width="1200" height="150" x="0" y="250" fill="url(#waves)"/><ellipse cx="200" cy="260" fill="#fff" opacity=".2" rx="40" ry="8"><animate attributeName="rx" dur="3s" repeatCount="indefinite" values="40;50;40"/></ellipse><ellipse cx="500" cy="255" fill="#fff" opacity=".15" rx="50" ry="10"><animate attributeName="rx" dur="4s" repeatCount="indefinite" values="50;60;50"/></ellipse><ellipse cx="800" cy="258" fill="#fff" opacity=".18" rx="45" ry="9"><animate attributeName="rx" dur="3.5s" repeatCount="indefinite" values="45;55;45"/></ellipse><g opacity=".4" transform="translate(150, 230)"><polygon fill="#1a237e" points="0 0 -15 20 15 20"/><rect width="4" height="30" x="-2" y="0" fill="#1a237e"/><path fill="#1a237e" d="M-20,20 L20,20 L15,30 L-15,30 Z"/></g><g filter="url(#shadow)" transform="translate(600, 200)"><ellipse cx="0" cy="0" fill="#f4e4c1" opacity=".95" rx="120" ry="30"/><ellipse cx="0" cy="0" fill="url(#strawTexture)" rx="120" ry="30"/><ellipse cx="0" cy="-25" fill="#f4e4c1" rx="70" ry="25"/><ellipse cx="0" cy="-25" fill="url(#strawTexture)" rx="70" ry="25"/><path fill="#e8d5b3" d="M-70,-25 Q-70,-50 0,-55 Q70,-50 70,-25"/><rect width="150" height="12" x="-75" y="-5" fill="#d32f2f" rx="2"/><rect width="150" height="12" x="-75" y="-5" fill="url(#glowGradient)" opacity=".3" rx="2"/><rect width="140" height="3" x="-70" y="-3" fill="#fff" opacity=".4" rx="1"/><line x1="-60" x2="-50" y1="1" y2="1" stroke="brown" stroke-width="1" opacity=".6"/><line x1="-40" x2="-30" y1="1" y2="1" stroke="brown" stroke-width="1" opacity=".6"/><line x1="-20" x2="-10" y1="1" y2="1" stroke="brown" stroke-width="1" opacity=".6"/><line x1="10" x2="20" y1="1" y2="1" stroke="brown" stroke-width="1" opacity=".6"/><line x1="30" x2="40" y1="1" y2="1" stroke="brown" stroke-width="1" opacity=".6"/><line x1="50" x2="60" y1="1" y2="1" stroke="brown" stroke-width="1" opacity=".6"/><animateTransform additive="sum" attributeName="transform" attributeType="XML" dur="3s" repeatCount="indefinite" type="translate" values="0 0; 0 -5; 0 0"/></g><g filter="url(#shadow)"><text x="600" y="110" fill="#fff" stroke="#1a237e" stroke-width="3" font-family="'Arial Black', 'Arial Bold', sans-serif" font-size="90" font-weight="900" text-anchor="middle">JOYBOY</text><text x="600" y="110" fill="url(#sunGradient)" filter="url(#glow)" font-family="'Arial Black', 'Arial Bold', sans-serif" font-size="90" font-weight="900" opacity=".5" text-anchor="middle">JOYBOY</text></g><text x="600" y="150" fill="#fff" font-family="Arial, sans-serif" font-size="22" font-weight="300" letter-spacing="4" opacity=".95" text-anchor="middle">THE ULTIMATE MANGA PARSER ECOSYSTEM</text><g opacity=".7" transform="translate(280, 100)"><rect width="3" height="40" x="0" y="0" fill="#8d6e63"/><path fill="#1a1a1a" d="M3,0 L40,8 L40,24 L3,16 Z"/><circle cx="21.5" cy="10" r="4" fill="#fff"/><circle cx="21.5" cy="10" r="2" fill="#1a1a1a"/><rect width="5" height="2" x="19" y="14" fill="#fff"/><path fill="none" stroke="#fff" stroke-width="1.5" d="M16,14 L19,18 M27,14 L24,18"/><animateTransform additive="sum" attributeName="transform" attributeType="XML" dur="1s" from="0 283 100" repeatCount="indefinite" to="5 283 100" type="rotate"/></g><text x="200" y="115" fill="#4fc3f7" font-family="monospace" font-size="60" font-weight="bold" opacity=".3">{</text><text x="970" y="115" fill="#4fc3f7" font-family="monospace" font-size="60" font-weight="bold" opacity=".3">}</text><g transform="translate(340, 350)"><rect width="100" height="28" x="0" y="0" fill="#3178c6" opacity=".9" rx="14"/><text x="50" y="19" fill="#fff" font-family="Arial, sans-serif" font-size="12" font-weight="600" text-anchor="middle">TypeScript</text></g><g transform="translate(450, 350)"><rect width="80" height="28" x="0" y="0" fill="#68a063" opacity=".9" rx="14"/><text x="40" y="19" fill="#fff" font-family="Arial, sans-serif" font-size="12" font-weight="600" text-anchor="middle">Node.js</text></g><g transform="translate(540, 350)"><rect width="110" height="28" x="0" y="0" fill="#61dafb" opacity=".9" rx="14"/><text x="55" y="19" fill="#1a1a1a" font-family="Arial, sans-serif" font-size="12" font-weight="600" text-anchor="middle">React Native</text></g><g transform="translate(660, 350)"><rect width="80" height="28" x="0" y="0" fill="#7c4dff" opacity=".9" rx="14"/><text x="40" y="19" fill="#fff" font-family="Arial, sans-serif" font-size="12" font-weight="600" text-anchor="middle">Modular</text></g><circle cx="520" cy="140" r="3" fill="#ffd54f" opacity=".8"><animate attributeName="opacity" dur="2s" repeatCount="indefinite" values="0;1;0"/><animate attributeName="r" dur="2s" repeatCount="indefinite" values="2;3;2"/></circle><circle cx="680" cy="135" r="2.5" fill="#fff" opacity=".7"><animate attributeName="opacity" dur="2.5s" repeatCount="indefinite" values="0;1;0"/><animate attributeName="r" dur="2.5s" repeatCount="indefinite" values="1.5;2.5;1.5"/></circle><circle cx="540" cy="165" r="2" fill="#4fc3f7" opacity=".6"><animate attributeName="opacity" dur="3s" repeatCount="indefinite" values="0;1;0"/><animate attributeName="r" dur="3s" repeatCount="indefinite" values="1;2;1"/></circle><circle cx="660" cy="170" r="2" fill="#ffd54f" opacity=".7"><animate attributeName="opacity" dur="2.2s" repeatCount="indefinite" values="0;1;0"/><animate attributeName="r" dur="2.2s" repeatCount="indefinite" values="1;2;1"/></circle><path fill="none" stroke="#fff" stroke-width="2" d="M0,280 Q100,275 200,280 T400,280 T600,280 T800,280 T1000,280 T1200,280" opacity=".3"><animate attributeName="d" dur="4s" repeatCount="indefinite" values="M0,280 Q100,275 200,280 T400,280 T600,280 T800,280 T1000,280 T1200,280; M0,280 Q100,285 200,280 T400,280 T600,280 T800,280 T1000,280 T1200,280; M0,280 Q100,275 200,280 T400,280 T600,280 T800,280 T1000,280 T1200,280"/></path></svg>